<svg width="270" height="270" viewBox="0 0 270 270" fill="none" xmlns="http://www.w3.org/2000/svg">
<rect width="270" height="270" fill="black"/>
<path d="M138.37 63.1915C159.285 75.4875 180.199 87.7836 201.113 100.083V173.299C181.112 184.468 161.114 195.64 141.113 206.808V106.101C148.019 112.347 154.924 118.589 161.827 124.835V176.341C163.313 175.511 164.8 174.68 166.289 173.85C166.289 158.857 166.289 143.863 166.289 128.869C170.774 132.924 175.26 136.982 179.745 141.037V166.337C181.214 165.516 182.683 164.694 184.155 163.876V109.946C168.895 100.974 153.633 92.0017 138.373 83.0294V63.1915H138.37Z" fill="#963435"/>
<path d="M138.371 63.1915C117.456 75.4875 96.542 87.7836 75.6277 100.083V173.299C95.6286 184.468 115.627 195.64 135.628 206.808C135.628 173.238 135.628 139.668 135.628 106.098C128.722 112.344 121.817 118.586 114.914 124.832C114.914 142.002 114.914 159.168 114.914 176.338C113.428 175.508 111.941 174.677 110.452 173.847C110.452 158.854 110.452 143.86 110.452 128.867C105.967 132.922 101.481 136.979 96.9958 141.034C96.9958 149.468 96.9958 157.901 96.9958 166.334C95.5268 165.513 94.0579 164.691 92.586 163.873C92.586 145.896 92.586 127.92 92.586 109.943C107.846 100.971 123.108 91.9988 138.368 83.0265C138.368 76.4168 138.368 69.807 138.368 63.1944L138.371 63.1915Z" fill="#BB3D33"/>
</svg>
