<svg width="208" height="30" viewBox="0 0 208 30" fill="none" xmlns="http://www.w3.org/2000/svg">
<path d="M77.2879 0.0658417C72.5458 0.0658417 68.6963 3.90434 68.6889 8.65013V29.4478H89.4719C94.2214 29.4478 98.0709 25.5983 98.0709 20.8489V0.0658417H77.2879ZM93.0056 20.8305C93.0056 22.8177 91.393 24.4302 89.4058 24.4302H77.2218C75.2346 24.4302 73.6221 22.8177 73.6221 20.8305V8.64645C73.6331 6.66292 75.2419 5.06508 77.2218 5.06508H89.4058C91.3894 5.06508 92.9982 6.6666 93.0056 8.64645V20.8305Z" fill="white"/>
<path d="M6.10352e-05 8.59898V29.3967H4.9993C4.9846 23.6628 4.96991 17.9289 4.95522 12.1987H4.95155V8.59898C4.95155 6.61177 6.56408 4.99924 8.55129 4.99924H24.3498V12.1987H16.6213C16.6213 13.87 16.6213 15.5377 16.6213 17.209C20.8822 17.2016 25.1395 17.198 29.4004 17.1906V0H8.59904C3.85326 0.00734642 0.00740745 3.8532 6.10352e-05 8.59898Z" fill="white"/>
<path d="M16.6215 17.2091H9.64972L21.8411 29.4005H28.8128L16.6215 17.2091Z" fill="url(#paint0_linear_2_2401)"/>
<path d="M132.033 0.0551682H139.005L126.814 12.2465H119.842L132.033 0.0551682Z" fill="url(#paint1_linear_2_2401)"/>
<path d="M102.986 0.0658417V5.06508H110.057V29.4478H115.056V8.65013C115.067 6.6666 116.676 5.06875 118.656 5.06875H122.233L127.233 0.069515H102.982L102.986 0.0658417Z" fill="white"/>
<path d="M126.806 17.2091H119.838L132.026 29.4005H138.998L126.806 17.2091Z" fill="url(#paint2_linear_2_2401)"/>
<path d="M4.95571 17.1981H4.94058V17.2435H4.95571V17.1981Z" fill="white"/>
<path d="M34.352 8.65013V29.4478H55.135C59.8844 29.4478 63.734 25.5983 63.734 20.8489V0.0658417H42.9509C38.2088 0.0658417 34.3593 3.90434 34.352 8.65013ZM58.6686 8.65013V20.8342C58.6686 22.8214 57.0561 24.4339 55.0689 24.4339H42.8848C40.8976 24.4339 39.2851 22.8214 39.2851 20.8342V8.65013C39.2924 6.6666 40.905 5.06875 42.8848 5.06875H55.0689C57.0487 5.06875 58.6613 6.67027 58.6686 8.65013Z" fill="white"/>
<path d="M148.967 17.2497H173.35V12.2504H148.967V8.6507C148.967 6.67084 150.572 5.06932 152.552 5.06932H173.35V0.0700836H152.552C147.817 0.0811032 143.979 3.91593 143.968 8.65437V17.257H148.967V17.2497Z" fill="white"/>
<path d="M154.242 24.4491H152.978L148.03 29.4006L147.979 29.4484H168.347L173.35 24.4491H154.242Z" fill="white"/>
<path d="M183.227 24.4305L178.228 29.4298H188.663L193.662 24.4305H183.227Z" fill="white"/>
<path d="M197.949 17.1977H207.69V0.0658417H202.691V12.1984H186.86C184.872 12.1984 183.26 10.5859 183.26 8.59871V0.0658417H178.261V8.59871C178.261 13.3482 182.11 17.1977 186.86 17.1977H197.949Z" fill="white"/>
<path d="M207.694 22.1163H200.726L193.442 29.4002H200.41L207.694 22.1163Z" fill="url(#paint3_linear_2_2401)"/>
<defs>
<linearGradient id="paint0_linear_2_2401" x1="25.327" y1="29.4005" x2="18.0023" y2="14.7722" gradientUnits="userSpaceOnUse">
<stop stop-color="#B800E6"/>
<stop offset="1" stop-color="#660080"/>
</linearGradient>
<linearGradient id="paint1_linear_2_2401" x1="124.748" y1="0.0551682" x2="129.515" y2="13.8325" gradientUnits="userSpaceOnUse">
<stop stop-color="#B800E6"/>
<stop offset="1" stop-color="#660080"/>
</linearGradient>
<linearGradient id="paint2_linear_2_2401" x1="135.514" y1="29.4005" x2="128.186" y2="14.7726" gradientUnits="userSpaceOnUse">
<stop stop-color="#B800E6"/>
<stop offset="1" stop-color="#660080"/>
</linearGradient>
<linearGradient id="paint3_linear_2_2401" x1="196.926" y1="29.4002" x2="205.619" y2="26.7656" gradientUnits="userSpaceOnUse">
<stop stop-color="#B800E6"/>
<stop offset="1" stop-color="#660080"/>
</linearGradient>
</defs>
</svg>
