<svg width="296" height="163" viewBox="0 0 296 163" fill="none" xmlns="http://www.w3.org/2000/svg">
<g clip-path="url(#clip0_4004_175)">
<path d="M77.1838 136.098C83.3407 130.975 84.3942 124.613 84.3942 118.905V94.9742H50.9408V127.467C50.9408 132.098 47.1718 135.888 42.5131 135.888C37.8545 135.888 34.4132 132.122 34.4132 127.467V35.4165C34.4132 30.7847 37.8545 26.9951 42.5131 26.9951C47.1718 26.9951 50.9408 30.7613 50.9408 35.4165V68.1194H84.3708V34.2001C84.3708 15.4625 72.1038 0.0467853 42.2556 0C11.5881 0 0 15.4859 0 34.2234V130.32C0 148.894 14.7485 162.953 33.6172 162.953H43.988L77.1604 136.075L77.1838 136.098Z" fill="white"/>
<path d="M209.078 139.865V34.2703H185.995V3.13464H269.57V34.2703H246.347V162.766H236.468L209.078 139.865Z" fill="white"/>
<path d="M224.06 163L142.662 94.8806L58.3385 163H224.06Z" fill="#FCCB00"/>
<path d="M165.909 3.32178H119.299L92.143 125.081L142.733 84.2838L195.476 128.426L165.909 3.32178ZM133.673 76.494L142.686 30.4806L151.652 76.494H133.673Z" fill="white"/>
<path d="M276.101 11.6496C276.101 6.17568 280.549 1.73108 286.097 1.73108C291.646 1.73108 296.023 6.17568 296.023 11.6496C296.023 17.1234 291.599 21.6148 286.097 21.6148C280.596 21.6148 276.101 17.1702 276.101 11.6496ZM294.268 11.6496C294.268 7.13478 290.616 3.46214 286.097 3.46214C281.579 3.46214 277.857 7.13478 277.857 11.6496C277.857 16.1643 281.532 19.8838 286.097 19.8838C290.662 19.8838 294.268 16.2111 294.268 11.6496ZM283.944 12.3046V17.3574H282.118V5.66105H285.91C288.04 5.66105 290.264 6.24586 290.264 8.88923C290.264 10.246 289.445 11.2987 287.877 11.6262V11.673C289.492 12.0005 289.679 12.7256 289.866 13.9888C290.007 15.1117 290.147 16.3281 290.545 17.3808H288.228C288.087 16.7258 287.9 15.9772 287.83 15.2988C287.713 14.2929 287.713 13.3806 287.174 12.8192C286.729 12.3513 286.121 12.3981 285.465 12.3513H283.92L283.944 12.3046ZM285.887 10.4799C287.596 10.4331 287.994 9.70797 287.994 8.81905C287.994 7.93013 287.596 7.48567 286.144 7.48567H283.944V10.4799H285.887Z" fill="white"/>
</g>
<defs>
<clipPath id="clip0_4004_175">
<rect width="296" height="163" fill="white"/>
</clipPath>
</defs>
</svg>
